<svg width="25" height="33" viewBox="0 0 25 33" fill="none" xmlns="http://www.w3.org/2000/svg">
<path d="M13 1.5C19.3513 1.5 24.5 6.64873 24.5 13C24.5 16.2097 23.1888 20.8768 21.0479 24.7432C19.9798 26.6718 18.7201 28.374 17.3408 29.5879C15.9608 30.8024 14.4949 31.5 13 31.5C11.5051 31.5 10.0392 30.8024 8.65918 29.5879C7.27988 28.374 6.02016 26.6718 4.95215 24.7432C2.81117 20.8768 1.5 16.2097 1.5 13C1.5 6.64873 6.64873 1.5 13 1.5Z" fill="white" stroke="#35B44A"/>
<path d="M19 9V21" stroke="#35B44A" stroke-width="1.73333" stroke-linecap="round"/>
<path d="M7 9V21" stroke="#35B44A" stroke-width="1.73333" stroke-linecap="round"/>
<g filter="url(#filter0_d_453_374)">
<rect x="7" y="9" width="12" height="9" rx="1" fill="#35B44A"/>
</g>
<defs>
<filter id="filter0_d_453_374" x="6.5" y="9" width="13" height="10.1" filterUnits="userSpaceOnUse" color-interpolation-filters="sRGB">
<feFlood flood-opacity="0" result="BackgroundImageFix"/>
<feColorMatrix in="SourceAlpha" type="matrix" values="0 0 0 0 0 0 0 0 0 0 0 0 0 0 0 0 0 0 127 0" result="hardAlpha"/>
<feOffset dy="0.6"/>
<feGaussianBlur stdDeviation="0.25"/>
<feComposite in2="hardAlpha" operator="out"/>
<feColorMatrix type="matrix" values="0 0 0 0 0 0 0 0 0 0 0 0 0 0 0 0 0 0 0.25 0"/>
<feBlend mode="normal" in2="BackgroundImageFix" result="effect1_dropShadow_453_374"/>
<feBlend mode="normal" in="SourceGraphic" in2="effect1_dropShadow_453_374" result="shape"/>
</filter>
</defs>
</svg>
