<svg width="24" height="27" viewBox="0 0 24 27" fill="none" xmlns="http://www.w3.org/2000/svg">
<path d="M8.5 8L6.5 11M15.5 8L17.5 11" stroke="#373737" stroke-linecap="round"/>
<path d="M3.5 11H20.5" stroke="#373737" stroke-linecap="round"/>
<path d="M4.5 11C5.08429 11 5.59018 11.4058 5.71693 11.9762L6.80394 16.8677C7.13763 18.3694 7.30448 19.1202 7.85289 19.5601C8.4013 20 9.17043 20 10.7087 20H13.2913C14.8296 20 15.5987 20 16.1471 19.5601C16.6955 19.1202 16.8624 18.3694 17.1961 16.8677L18.2831 11.9762C18.4098 11.4058 18.9157 11 19.5 11" stroke="#373737" stroke-linecap="round"/>
<path d="M10.5 17.4375L9.5 13.5" stroke="#373737" stroke-linecap="round"/>
<path d="M13.5 17.4375L14.5 13.5" stroke="#373737" stroke-linecap="round"/>
</svg>
