<svg width="20" height="20" viewBox="0 0 15 15" fill="none" xmlns="http://www.w3.org/2000/svg">
<path d="M2.78167 8.69263L7.12705 12.7747C7.15565 12.8015 7.16995 12.815 7.18299 12.8256C7.36732 12.9768 7.63268 12.9768 7.81701 12.8256C7.83005 12.815 7.84435 12.8015 7.87295 12.7747L12.2183 8.69263C13.4409 7.54412 13.5894 5.65412 12.5611 4.32879L12.3678 4.07959C11.1377 2.49411 8.66852 2.76001 7.80417 4.57103C7.68207 4.82685 7.31793 4.82685 7.19583 4.57103C6.33148 2.76001 3.86232 2.49411 2.63221 4.07959L2.43887 4.32879C1.41059 5.65413 1.55906 7.54412 2.78167 8.69263Z" fill="white" stroke="#35B44A"/>
</svg>
