<svg width="25" height="31" viewBox="0 0 25 31" fill="none" xmlns="http://www.w3.org/2000/svg">
<path d="M13 0.5C19.3513 0.5 24.5 5.64873 24.5 12C24.5 15.2097 23.1888 19.8768 21.0479 23.7432C19.9798 25.6718 18.7201 27.374 17.3408 28.5879C15.9608 29.8024 14.4949 30.5 13 30.5C11.5051 30.5 10.0392 29.8024 8.65918 28.5879C7.27988 27.374 6.02016 25.6718 4.95215 23.7432C2.81117 19.8768 1.5 15.2097 1.5 12C1.5 5.64873 6.64873 0.5 13 0.5Z" fill="white" stroke="#35B44A"/>
<path d="M13 13V22" stroke="#35B44A" stroke-width="4" stroke-linecap="round"/>
<g filter="url(#filter0_d_453_398)">
<rect x="7" y="7" width="12" height="13" rx="1" fill="#35B44A"/>
</g>
<defs>
<filter id="filter0_d_453_398" x="3" y="3.5" width="20" height="21" filterUnits="userSpaceOnUse" color-interpolation-filters="sRGB">
<feFlood flood-opacity="0" result="BackgroundImageFix"/>
<feColorMatrix in="SourceAlpha" type="matrix" values="0 0 0 0 0 0 0 0 0 0 0 0 0 0 0 0 0 0 127 0" result="hardAlpha"/>
<feOffset dy="0.5"/>
<feGaussianBlur stdDeviation="2"/>
<feComposite in2="hardAlpha" operator="out"/>
<feColorMatrix type="matrix" values="0 0 0 0 0 0 0 0 0 0 0 0 0 0 0 0 0 0 0.25 0"/>
<feBlend mode="normal" in2="BackgroundImageFix" result="effect1_dropShadow_453_398"/>
<feBlend mode="normal" in="SourceGraphic" in2="effect1_dropShadow_453_398" result="shape"/>
</filter>
</defs>
</svg>
